<svg xmlns="http://www.w3.org/2000/svg" viewBox="0 0 512 512" width="512" height="512"><path fill="#edf3fc" d="M255.999 40.928c-118.778 0-215.071 96.294-215.071 215.074 0 118.776 96.292 215.068 215.071 215.068S471.07 374.778 471.07 256.002c0-118.78-96.293-215.074-215.071-215.074z"/><path fill="#edf3fc" d="M255.999 1C115.391 1 1 115.392 1 256.002 1 396.609 115.391 511 255.999 511S511 396.609 511 256.002C511 115.392 396.607 1 255.999 1zm0 501.832c-136.103 0-246.83-110.728-246.83-246.83 0-136.104 110.727-246.833 246.83-246.833 136.102 0 246.832 110.729 246.832 246.833 0 136.102-110.73 246.83-246.832 246.83z"/><path fill="#ffbe1b" d="M354.314 315.691C364.901 298.291 371 277.857 371 256c0-63.513-51.487-115-115-115s-115 51.487-115 115 51.487 115 115 115c19.801 0 38.432-5.005 54.699-13.818l60.301 23.4-16.686-64.891z"/><circle cx="256" cy="256" r="20" fill="#5932ae"/><circle cx="196" cy="256" r="20" fill="#5932ae"/><circle cx="316" cy="256" r="20" fill="#5932ae"/><path fill="#330d84" d="m402.64 148.851 2.606.653-2.606.653a42.621 42.621 0 0 0-30.986 30.991l-.656 2.603-.654-2.603a42.624 42.624 0 0 0-30.993-30.991l-2.596-.653 2.596-.653a42.627 42.627 0 0 0 30.993-30.986l.654-2.601.656 2.601a42.628 42.628 0 0 0 30.986 30.986z"/><path fill="#5d8ef9" d="m182.486 144.827 2.271.569-2.271.569a37.144 37.144 0 0 0-27.005 27.01l-.572 2.268-.57-2.268a37.149 37.149 0 0 0-27.012-27.01l-2.263-.569 2.263-.569a37.155 37.155 0 0 0 27.012-27.005l.57-2.266.572 2.266a37.15 37.15 0 0 0 27.005 27.005zm31.992-39.657 1.522.381-1.522.381a24.892 24.892 0 0 0-18.096 18.099l-.383 1.52-.382-1.52a24.892 24.892 0 0 0-18.101-18.099l-1.516-.381 1.516-.381a24.898 24.898 0 0 0 18.101-18.096l.382-1.519.383 1.519a24.896 24.896 0 0 0 18.096 18.096z"/><path fill="#ffbe1b" d="m156.811 354.067 1.98.496-1.98.496a32.378 32.378 0 0 0-23.541 23.545l-.498 1.977-.497-1.977a32.381 32.381 0 0 0-23.547-23.545l-1.972-.496 1.972-.496a32.386 32.386 0 0 0 23.547-23.541l.497-1.976.498 1.976a32.383 32.383 0 0 0 23.541 23.541zm36.761 27.135 1.257.315-1.257.315a20.558 20.558 0 0 0-14.947 14.95l-.316 1.255-.315-1.255a20.562 20.562 0 0 0-14.951-14.95l-1.252-.315 1.252-.315a20.564 20.564 0 0 0 14.951-14.947l.315-1.254.316 1.254a20.567 20.567 0 0 0 14.947 14.947z"/></svg>