<svg xmlns="http://www.w3.org/2000/svg" viewBox="0 0 64 64" width="64" height="64"><circle cx="8" cy="16" r="4" fill="#edae65"/><circle cx="24" cy="8" r="4" fill="#6581c6"/><circle cx="40" cy="16" r="4" fill="#78b24c"/><circle cx="24" cy="24" r="4" fill="#6581c6"/><circle cx="24" cy="40" r="4" fill="#6581c6"/><circle cx="24" cy="56" r="4" fill="#6581c6"/><circle cx="8" cy="32" r="4" fill="#edae65"/><circle cx="56" cy="32" r="4" fill="#e26677"/><circle cx="8" cy="48" r="4" fill="#edae65"/><circle cx="40" cy="48" r="4" fill="#78b24c"/><path fill="#1a2c3d" d="M56,27c-1.02,0-1.96,.31-2.75,.83l-9.08-9.08c.52-.79,.83-1.74,.83-2.75,0-2.76-2.24-5-5-5-1.59,0-2.99,.76-3.91,1.92l-7.28-3.63c.11-.41,.19-.84,.19-1.29,0-2.76-2.24-5-5-5s-5,2.24-5,5c0,.45,.08,.88,.19,1.29l-7.28,3.63c-.92-1.16-2.32-1.92-3.91-1.92-2.76,0-5,2.24-5,5s2.24,5,5,5c1.59,0,2.99-.76,3.91-1.92l7.28,3.63c-.11,.41-.19,.84-.19,1.29s.08,.88,.19,1.29l-7.28,3.63c-.92-1.16-2.32-1.92-3.91-1.92-2.76,0-5,2.24-5,5s2.24,5,5,5c1.59,0,2.99-.76,3.91-1.92l7.28,3.63c-.11,.41-.19,.84-.19,1.29s.08,.88,.19,1.29l-7.28,3.63c-.92-1.16-2.32-1.92-3.91-1.92-2.76,0-5,2.24-5,5s2.24,5,5,5c1.59,0,2.99-.76,3.91-1.92l7.28,3.63c-.11,.41-.19,.84-.19,1.29,0,2.76,2.24,5,5,5s5-2.24,5-5c0-.45-.08-.88-.19-1.29l7.28-3.63c.92,1.16,2.32,1.92,3.91,1.92,2.76,0,5-2.24,5-5,0-1.02-.31-1.96-.83-2.75l9.08-9.08c.79,.52,1.74,.83,2.75,.83,2.76,0,5-2.24,5-5s-2.24-5-5-5Zm-16-14c1.65,0,3,1.35,3,3s-1.35,3-3,3-3-1.35-3-3,1.35-3,3-3ZM24,5c1.65,0,3,1.35,3,3s-1.35,3-3,3-3-1.35-3-3,1.35-3,3-3ZM8,19c-1.65,0-3-1.35-3-3s1.35-3,3-3,3,1.35,3,3-1.35,3-3,3Zm4.81-1.71c.11-.41,.19-.84,.19-1.29s-.08-.88-.19-1.29l7.28-3.63c.92,1.16,2.32,1.92,3.91,1.92s2.99-.76,3.91-1.92l7.28,3.63c-.11,.41-.19,.84-.19,1.29s.08,.88,.19,1.29l-7.28,3.63c-.92-1.16-2.32-1.92-3.91-1.92s-2.99,.76-3.91,1.92l-7.28-3.63Zm8.19,6.71c0-1.65,1.35-3,3-3s3,1.35,3,3-1.35,3-3,3-3-1.35-3-3Zm-13,11c-1.65,0-3-1.35-3-3s1.35-3,3-3,3,1.35,3,3-1.35,3-3,3Zm4.81-1.71c.11-.41,.19-.84,.19-1.29s-.08-.88-.19-1.29l7.28-3.63c.92,1.16,2.32,1.92,3.91,1.92,2.76,0,5-2.24,5-5,0-.45-.08-.88-.19-1.29l7.28-3.63c.92,1.16,2.32,1.92,3.91,1.92,1.02,0,1.96-.31,2.75-.83l9.08,9.08c-.52,.79-.83,1.74-.83,2.75s.31,1.96,.83,2.75l-9.08,9.08c-.79-.52-1.74-.83-2.75-.83-1.59,0-2.99,.76-3.91,1.92l-7.28-3.63c.11-.41,.19-.84,.19-1.29,0-2.76-2.24-5-5-5-1.59,0-2.99,.76-3.91,1.92l-7.28-3.63Zm8.19,6.71c0-1.65,1.35-3,3-3s3,1.35,3,3-1.35,3-3,3-3-1.35-3-3Zm-13,11c-1.65,0-3-1.35-3-3s1.35-3,3-3,3,1.35,3,3-1.35,3-3,3Zm16,8c-1.65,0-3-1.35-3-3s1.35-3,3-3,3,1.35,3,3-1.35,3-3,3Zm3.91-6.08c-.92-1.16-2.32-1.92-3.91-1.92s-2.99,.76-3.91,1.92l-7.28-3.63c.11-.41,.19-.84,.19-1.29s-.08-.88-.19-1.29l7.28-3.63c.92,1.16,2.32,1.92,3.91,1.92s2.99-.76,3.91-1.92l7.28,3.63c-.11,.41-.19,.84-.19,1.29s.08,.88,.19,1.29l-7.28,3.63Zm12.09-1.92c-1.65,0-3-1.35-3-3s1.35-3,3-3,3,1.35,3,3-1.35,3-3,3Zm16-16c-1.65,0-3-1.35-3-3s1.35-3,3-3,3,1.35,3,3-1.35,3-3,3Z"/></svg>